HIERARCHY
ROOT Hips
{
	OFFSET 0.000000 0.000000 0.000000
	CHANNELS 6 Xposition Yposition Zposition Zrotation Yrotation Xrotation 
	JOINT LHipJoint
	{
		OFFSET 0.000000 0.000000 0.000000
		CHANNELS 3 Zrotation Yrotation Xrotation
		JOINT LeftUpLeg
		{
			OFFSET 1.363060 -1.794630 0.839290
			CHANNELS 3 Zrotation Yrotation Xrotation
			JOINT LeftLeg
			{
				OFFSET 2.448110 -6.726130 0.000000
				CHANNELS 3 Zrotation Yrotation Xrotation
				JOINT LeftFoot
				{
					OFFSET 2.562200 -7.039590 0.000000
					CHANNELS 3 Zrotation Yrotation Xrotation
					JOINT LeftToeBase
					{
						OFFSET 0.157640 -0.433110 2.322550
						CHANNELS 3 Zrotation Yrotation Xrotation
						End Site
						{
							OFFSET 0.000000 0.000000 0.000000
						}
					}
				}
			}
		}
	}
	JOINT RHipJoint
	{
		OFFSET 0.000000 0.000000 0.000000
		CHANNELS 3 Zrotation Yrotation Xrotation
		JOINT RightUpLeg
		{
			OFFSET -1.305520 -1.794630 0.839290
			CHANNELS 3 Zrotation Yrotation Xrotation
			JOINT RightLeg
			{
				OFFSET -2.542530 -6.985550 0.000000
				CHANNELS 3 Zrotation Yrotation Xrotation
				JOINT RightFoot
				{
					OFFSET -2.568260 -7.056230 0.000000
					CHANNELS 3 Zrotation Yrotation Xrotation
					JOINT RightToeBase
					{
						OFFSET -0.164730 -0.452590 2.363150
						CHANNELS 3 Zrotation Yrotation Xrotation
						End Site
						{
							OFFSET 0.000000 0.000000 0.000000
						}
					}
				}
			}
		}
	}
	JOINT LowerBack
	{
		OFFSET 0.000000 0.000000 0.000000
		CHANNELS 3 Zrotation Yrotation Xrotation
		JOINT Spine
		{
			OFFSET 0.028270 2.035590 -0.193380
			CHANNELS 3 Zrotation Yrotation Xrotation
			JOINT Spine1
			{
				OFFSET 0.056720 2.048850 -0.042750
				CHANNELS 3 Zrotation Yrotation Xrotation
				JOINT Neck
				{
					OFFSET 0.000000 0.000000 0.000000
					CHANNELS 3 Zrotation Yrotation Xrotation
					JOINT Neck1
					{
						OFFSET -0.054170 1.746240 0.172020
						CHANNELS 3 Zrotation Yrotation Xrotation
						JOINT Head
						{
							OFFSET 0.104070 1.761360 -0.123970
							CHANNELS 3 Zrotation Yrotation Xrotation
							End Site
							{
								OFFSET 0.000000 0.000000 0.000000
							}
						}
					}
				}
				JOINT LeftShoulder
				{
					OFFSET 0.000000 0.000000 0.000000
					CHANNELS 3 Zrotation Yrotation Xrotation
					JOINT LeftArm
					{
						OFFSET 3.362410 1.200890 -0.311210
						CHANNELS 3 Zrotation Yrotation Xrotation
						JOINT LeftForeArm
						{
							OFFSET 4.983000 -0.000000 -0.000000
							CHANNELS 3 Zrotation Yrotation Xrotation
							JOINT LeftHand
							{
								OFFSET 3.483560 -0.000000 -0.000000
								CHANNELS 3 Zrotation Yrotation Xrotation
								JOINT LeftFingerBase
								{
									OFFSET 0.000000 0.000000 0.000000
									CHANNELS 3 Zrotation Yrotation Xrotation
									JOINT LeftHandIndex1
									{
										OFFSET 0.715260 -0.000000 -0.000000
										CHANNELS 3 Zrotation Yrotation Xrotation
										End Site
										{
											OFFSET 0.000000 0.000000 0.000000
										}
									}
								}
								JOINT LThumb
								{
									OFFSET 0.000000 0.000000 0.000000
									CHANNELS 3 Zrotation Yrotation Xrotation
									End Site
									{
										OFFSET 0.000000 0.000000 0.000000
									}
								}
							}
						}
					}
				}
				JOINT RightShoulder
				{
					OFFSET 0.000000 0.000000 0.000000
					CHANNELS 3 Zrotation Yrotation Xrotation
					JOINT RightArm
					{
						OFFSET -3.136600 1.374050 -0.404650
						CHANNELS 3 Zrotation Yrotation Xrotation
						JOINT RightForeArm
						{
							OFFSET -5.241900 -0.000000 -0.000000
							CHANNELS 3 Zrotation Yrotation Xrotation
							JOINT RightHand
							{
								OFFSET -3.444170 -0.000000 -0.000000
								CHANNELS 3 Zrotation Yrotation Xrotation
								JOINT RightFingerBase
								{
									OFFSET 0.000000 0.000000 0.000000
									CHANNELS 3 Zrotation Yrotation Xrotation
									JOINT RightHandIndex1
									{
										OFFSET -0.622530 -0.000000 -0.000000
										CHANNELS 3 Zrotation Yrotation Xrotation
										End Site
										{
											OFFSET 0.000000 0.000000 0.000000
										}
									}
								}
								JOINT RThumb
								{
									OFFSET 0.000000 0.000000 0.000000
									CHANNELS 3 Zrotation Yrotation Xrotation
									End Site
									{
										OFFSET 0.000000 0.000000 0.000000
									}
								}
							}
						}
					}
				}
			}
		}
	}
}
MOTION
Frames: 12
Frame Time: 0.008333
0.352327 18.080740 3.825062 -60.073875 -80.901194 65.920878 -0.866527 -1.805507 -1.854382 -3.767100 -7.185093 -25.593367 7.798166 16.724276 52.414740 -0.405347 3.811955 3.119044 0.679900 -5.272100 -14.686400 0.508788 1.027684 -1.344717 33.395188 6.750696 -4.987247 -0.056328 -5.477670 13.805170 1.823927 -11.799475 -3.771821 -0.832400 -5.820500 16.264500 5.139695 -0.040700 3.289637 2.020716 0.323513 -4.621396 6.058922 -0.205433 -0.934397 -6.836983 -7.148917 -8.068090 8.857612 -8.908909 2.829581 3.517500 -4.272800 4.562600 6.766364 2.651319 0.674901 -88.439175 12.027105 -12.006451 4.107531 -18.123036 -1.378435 1.591373 2.189783 36.855616 5.871784 22.550176 2.015300 -7.125000 0.000000 0.000000 -21.732700 48.635500 -2.037600 -3.127142 -3.046596 -1.427642 83.793444 1.110682 0.413872 -5.899421 14.424743 -0.610675 -0.479910 0.608527 24.930380 -13.130447 -25.668779 5.545400 7.125000 0.000000 0.000000 18.750200 -55.629300 -5.018400 
0.233250 18.073135 3.827164 -61.800933 -80.919409 67.614297 -0.865592 -1.834764 -1.889685 -3.523308 -7.307956 -26.073026 7.442756 16.465089 51.188638 -0.431848 3.916628 2.610419 0.691400 -5.315800 -14.811400 0.520969 1.014766 -1.323726 33.617426 6.687779 -4.496786 -0.055721 -5.468832 13.793698 1.775078 -11.551200 -4.044790 -0.807500 -5.734800 16.016800 5.271106 0.071458 3.300994 1.988804 0.471474 -4.611708 5.926402 -0.134319 -0.909898 -6.847970 -7.200975 -7.981473 9.017413 -8.976716 2.739697 3.578900 -4.302300 4.527500 6.732653 2.635535 0.691043 -88.504628 12.276807 -11.842711 4.469892 -18.656079 -1.456613 1.568187 2.248913 34.796200 6.402397 22.725984 2.196800 -7.125000 0.000000 0.000000 -21.351800 48.835200 -2.107800 -3.128217 -3.019715 -1.426968 83.701610 1.826076 1.739704 -6.068797 14.740471 -0.658775 -0.484857 0.597704 24.066661 -13.158251 -25.707523 5.567800 7.125000 0.000000 0.000000 18.738900 -55.670700 -5.034300 
0.114874 18.065230 3.829565 -63.374776 -80.918816 69.172954 -0.868134 -1.864473 -1.924060 -3.276344 -7.456177 -26.517818 7.059349 16.173225 49.844952 -0.463295 4.060022 2.185595 0.696000 -5.333100 -14.861100 0.533671 1.002854 -1.302539 33.824944 6.611391 -4.034379 -0.054774 -5.458552 13.778166 1.727567 -11.310998 -4.314772 -0.783000 -5.649100 15.769600 5.400529 0.173446 3.299364 1.959498 0.604505 -4.606684 5.803774 -0.069687 -0.891380 -6.862116 -7.249454 -7.887100 9.156124 -9.039739 2.653581 3.634200 -4.330800 4.491600 6.705591 2.620389 0.704705 -88.602945 12.470806 -11.826672 4.787918 -19.114655 -1.528839 1.565033 2.288833 33.087603 7.036645 22.874462 2.410000 -7.125000 0.000000 0.000000 -20.875400 49.028000 -2.159500 -3.130803 -2.993869 -1.426865 83.607200 2.548932 3.063421 -6.255963 15.085879 -0.712528 -0.490253 0.586155 23.159989 -13.170025 -25.769027 5.587200 7.125000 0.000000 0.000000 18.757000 -55.730300 -5.067000 
-0.002802 18.057125 3.832167 -64.800049 -80.903352 70.605939 -0.874154 -1.894987 -1.957913 -3.024658 -7.631105 -26.932256 6.652234 15.848348 48.393111 -0.500043 4.239802 1.838090 0.700500 -5.349900 -14.909400 0.546755 0.992072 -1.281440 34.016774 6.528527 -3.608172 -0.054204 -5.449628 13.766570 1.680754 -11.076436 -4.584141 -0.758200 -5.561000 15.515700 5.526286 0.264386 3.279254 1.933343 0.720816 -4.605285 5.694245 -0.012144 -0.875405 -6.883504 -7.298247 -7.759016 9.265844 -9.102181 2.545506 3.681500 -4.362200 4.440300 6.687199 2.606068 0.716574 -88.739789 12.599420 -11.966203 5.050688 -19.486329 -1.592572 1.583849 2.309227 31.748663 7.772866 22.988094 2.653300 -7.125000 0.000000 0.000000 -20.301100 49.207700 -2.188200 -3.135175 -2.969914 -1.426799 83.509021 3.270311 4.418544 -6.469336 15.476756 -0.774649 -0.496072 0.573922 22.169450 -13.187061 -25.847131 5.612400 7.125000 0.000000 0.000000 18.779800 -55.806800 -5.108800 
-0.120478 18.048819 3.835069 -66.111512 -80.875834 71.942604 -0.883923 -1.926052 -1.990618 -2.769125 -7.824201 -27.301562 6.220935 15.485806 46.823929 -0.542673 4.455322 1.559891 0.707800 -5.376900 -14.986900 0.560459 0.982178 -1.260153 34.193783 6.431260 -3.210400 -0.053676 -5.441148 13.756002 1.632851 -10.838263 -4.848208 -0.733200 -5.470500 15.255500 5.651948 0.346777 3.245556 1.909970 0.824104 -4.608358 5.595073 0.039579 -0.863551 -6.910393 -7.342598 -7.644446 9.349121 -9.158491 2.461902 3.720900 -4.391200 4.399500 6.675729 2.592358 0.725698 -88.903133 12.672648 -12.206615 5.255107 -19.770741 -1.645697 1.621579 2.309422 30.722596 8.606948 23.034443 2.921400 -7.125000 0.000000 0.000000 -19.618600 49.346200 -2.178200 -3.141634 -2.947263 -1.427817 83.411222 3.985353 5.775035 -6.711511 15.915884 -0.845973 -0.502714 0.560715 21.117807 -13.185615 -25.974357 5.638500 7.125000 0.000000 0.000000 18.850800 -55.925500 -5.184100 
-0.238454 18.040114 3.838571 -67.358882 -80.842126 73.229528 -0.897395 -1.957629 -2.022001 -2.513293 -8.025408 -27.618744 5.767029 15.082492 45.135252 -0.589984 4.697349 1.352286 0.722400 -5.431000 -15.142200 0.575169 0.973081 -1.238719 34.354843 6.322995 -2.835253 -0.053457 -5.433276 13.747383 1.581734 -10.586117 -5.109094 -0.706300 -5.371500 14.971200 5.777734 0.423125 3.196707 1.888551 0.917574 -4.615319 5.505423 0.087292 -0.854820 -6.939899 -7.382306 -7.529865 9.400425 -9.208991 2.395041 3.750000 -4.418700 4.363200 6.672270 2.579695 0.731856 -89.096613 12.679475 -12.590345 5.392934 -19.956032 -1.686724 1.682076 2.297575 30.035655 9.509990 23.109904 3.216400 -7.125000 0.000000 0.000000 -18.890700 49.522100 -2.175900 -3.150376 -2.926911 -1.429777 83.314086 4.674802 7.156516 -6.993617 16.422949 -0.930613 -0.510021 0.546575 19.976751 -13.182355 -26.142885 5.672000 7.125000 0.000000 0.000000 18.949200 -56.083000 -5.286000 
-0.357130 18.031108 3.842774 -68.565751 -80.805996 74.487391 -0.914765 -1.989607 -2.051907 -2.260485 -8.226768 -27.875918 5.292491 14.634337 43.323166 -0.642202 4.966106 1.227097 0.737800 -5.487500 -15.304500 0.591143 0.964690 -1.217271 34.498053 6.202274 -2.476062 -0.053089 -5.424892 13.737376 1.527993 -10.322511 -5.361999 -0.680600 -5.274800 14.694100 5.903529 0.494896 3.135558 1.868368 1.003398 -4.624968 5.423606 0.131628 -0.845627 -6.969779 -7.416613 -7.439349 9.419293 -9.252688 2.358853 3.767800 -4.443200 4.340900 6.675856 2.568345 0.734863 -89.315981 12.622008 -13.081558 5.468020 -20.050416 -1.715631 1.761671 2.275040 29.641355 10.465162 23.209864 3.534100 -7.125000 0.000000 0.000000 -18.128200 49.729800 -2.177600 -3.161738 -2.909037 -1.432707 83.222148 5.342799 8.522583 -7.313594 16.991835 -1.029646 -0.517193 0.531750 18.786201 -13.170024 -26.315894 5.702000 7.125000 0.000000 0.000000 19.060400 -56.242600 -5.393300 
-0.476607 18.021602 3.847577 -69.775829 -80.768090 75.757396 -0.935902 -2.021434 -2.079663 -2.009518 -8.416461 -28.070309 4.800547 14.137900 41.386049 -0.700557 5.267918 1.203087 0.756600 -5.555200 -15.499100 0.608861 0.956837 -1.195372 34.627546 6.076474 -2.126596 -0.052799 -5.416321 13.727007 1.472191 -10.050895 -5.604546 -0.655400 -5.178100 14.417300 6.029446 0.565826 3.064758 1.848491 1.087132 -4.640308 5.346572 0.175343 -0.846471 -6.993963 -7.443828 -7.355574 9.406999 -9.289383 2.354383 3.774000 -4.464900 4.329200 6.685235 2.557389 0.734938 -89.553458 12.518062 -13.645294 5.488356 -20.066035 -1.733544 1.857059 2.244989 29.502956 11.448674 23.355298 3.871900 -7.125000 0.000000 0.000000 -17.358100 49.985600 -2.191600 -3.174729 -2.893521 -1.437084 83.139554 5.963955 9.883487 -7.683102 17.640381 -1.147569 -0.524536 0.516057 17.536664 -13.144847 -26.518189 5.731600 7.125000 0.000000 0.000000 19.203400 -56.426700 -5.522700 
-0.596884 18.011595 3.852880 -71.015448 -80.733140 77.064337 -0.960987 -2.052885 -2.105293 -1.764263 -8.587912 -28.196834 4.293896 13.588507 39.318087 -0.766690 5.612052 1.300448 0.774300 -5.618600 -15.681700 0.628788 0.949550 -1.173271 34.740719 5.950436 -1.779232 -0.051978 -5.405419 13.709730 1.415344 -9.774967 -5.834614 -0.631200 -5.083600 14.147200 6.153506 0.636019 2.989760 1.827896 1.169169 -4.659661 5.271929 0.218453 -0.854850 -7.015468 -7.463534 -7.288917 9.373140 -9.316966 2.377501 3.772500 -4.482200 4.329400 6.698114 2.546908 0.732849 -89.802734 12.381692 -14.218468 5.471427 -20.031733 -1.743379 1.960848 2.212741 29.537922 12.417963 23.554082 4.219900 -7.125000 0.000000 0.000000 -16.617100 50.290700 -2.220500 -3.189409 -2.879943 -1.442686 83.068684 6.543215 11.254761 -8.104758 18.370305 -1.286939 -0.531300 0.499874 16.195182 -13.150182 -26.707709 5.773600 7.125000 0.000000 0.000000 19.309000 -56.605700 -5.639400 
-0.717562 18.001089 3.858184 -72.246831 -80.696944 78.378445 -0.989914 -2.083953 -2.129083 -1.517410 -8.745674 -28.272697 3.780707 12.987353 37.133967 -0.838742 5.990725 1.529572 0.789400 -5.671700 -15.834900 0.650625 0.943033 -1.150840 34.843002 5.834085 -1.445666 -0.051241 -5.394977 13.693188 1.359313 -9.503909 -6.058146 -0.608100 -4.991300 13.883900 6.272463 0.702634 2.907153 1.807441 1.246007 -4.685024 5.202580 0.259109 -0.875380 -7.036860 -7.477989 -7.224036 9.321922 -9.338601 2.417630 3.765200 -4.497000 4.335100 6.714853 2.536964 0.728846 -90.063759 12.214323 -14.802948 5.422713 -19.952304 -1.745512 2.066772 2.176990 29.724477 13.336064 23.762939 4.559500 -7.125000 0.000000 0.000000 -15.920100 50.602000 -2.247000 -3.205518 -2.868303 -1.449465 83.012346 7.069658 12.625464 -8.589756 19.195957 -1.453762 -0.537424 0.483118 14.802749 -13.157122 -26.888331 5.814800 7.125000 0.000000 0.000000 19.408100 -56.776600 -5.751100 
-0.838840 17.989881 3.863587 -73.474794 -80.660613 79.702625 -1.022695 -2.114074 -2.150659 -1.271616 -8.886899 -28.293248 3.266175 12.332919 34.837921 -0.913969 6.393134 1.871257 0.796700 -5.697200 -15.908300 0.674570 0.937287 -1.128105 34.934028 5.724994 -1.119515 -0.050116 -5.382913 13.671519 1.304030 -9.238396 -6.275930 -0.585100 -4.897500 13.616400 6.384508 0.768828 2.817265 1.785794 1.321941 -4.716211 5.134832 0.299228 -0.907109 -7.056902 -7.490374 -7.168368 9.262575 -9.358876 2.481576 3.754500 -4.511000 4.351100 6.732884 2.527824 0.723294 -90.322669 12.031215 -15.336621 5.357231 -19.852280 -1.742726 2.167739 2.143694 29.986319 14.157078 23.990788 4.876700 -7.125000 0.000000 0.000000 -15.309300 50.919800 -2.278600 -3.222817 -2.858364 -1.457416 82.974688 7.540625 13.960078 -9.141734 20.118208 -1.651849 -0.542841 0.465590 13.400355 -13.124234 -27.058453 5.834900 7.125000 0.000000 0.000000 19.541200 -56.928400 -5.865300 
-0.960418 17.978274 3.868891 -74.720576 -80.623340 81.060792 -1.058521 -2.142862 -2.170354 -1.021838 -9.012548 -28.264665 2.757898 11.626886 32.444039 -0.986957 6.794115 2.297494 0.794600 -5.689900 -15.887300 0.700563 0.932594 -1.105638 35.016715 5.632673 -0.803886 -0.048833 -5.370655 13.649042 1.250579 -8.982533 -6.488716 -0.561600 -4.799900 13.338600 6.490399 0.833301 2.717589 1.763457 1.394432 -4.751251 5.069315 0.337909 -0.945707 -7.080817 -7.505231 -7.093755 9.196062 -9.382367 2.536187 3.742400 -4.527800 4.360300 6.752205 2.519665 0.717769 -90.586708 11.836476 -15.803710 5.290377 -19.755915 -1.738430 2.258519 2.117959 30.277131 14.840984 24.240045 5.157900 -7.125000 0.000000 0.000000 -14.820000 51.238900 -2.320800 -3.241090 -2.850363 -1.465641 82.955153 7.959392 15.264393 -9.766907 21.140897 -1.886940 -0.547064 0.447605 11.980759 -13.069011 -27.185436 5.836100 7.125000 0.000000 0.000000 19.668800 -57.034300 -5.956600 
